<?xml version="1.0" encoding="utf-8" standalone="no"?>
<!DOCTYPE svg PUBLIC "-//W3C//DTD SVG 1.1//EN"
  "http://www.w3.org/Graphics/SVG/1.1/DTD/svg11.dtd">
<svg xmlns:xlink="http://www.w3.org/1999/xlink" width="852.651854pt" height="568.234312pt" viewBox="0 0 852.651854 568.234312" xmlns="http://www.w3.org/2000/svg" version="1.1">
 <metadata>
  <rdf:RDF xmlns:dc="http://purl.org/dc/elements/1.1/" xmlns:cc="http://creativecommons.org/ns#" xmlns:rdf="http://www.w3.org/1999/02/22-rdf-syntax-ns#">
   <cc:Work>
    <dc:type rdf:resource="http://purl.org/dc/dcmitype/StillImage"/>
    <dc:date>2025-09-10T10:13:52.056869</dc:date>
    <dc:format>image/svg+xml</dc:format>
    <dc:creator>
     <cc:Agent>
      <dc:title>Matplotlib v3.10.6, https://matplotlib.org/</dc:title>
     </cc:Agent>
    </dc:creator>
   </cc:Work>
  </rdf:RDF>
 </metadata>
 <defs>
  <style type="text/css">*{stroke-linejoin: round; stroke-linecap: butt}</style>
 </defs>
 <g id="figure_1">
  <g id="patch_1">
   <path d="M 0 568.234312 
L 852.651854 568.234312 
L 852.651854 0 
L 0 0 
z
" style="fill: #ffffff"/>
  </g>
  <g id="axes_1">
   <g id="patch_2">
    <path d="M 48.020938 528.10525 
L 843.330937 528.10525 
L 843.330937 56.192 
L 48.020938 56.192 
z
" style="fill: #eaeaf2"/>
   </g>
   <g id="matplotlib.axis_1">
    <g id="xtick_1">
     <g id="line2d_1">
      <path d="M 48.020938 528.10525 
L 48.020938 56.192 
" clip-path="url(#pa0e3e784a9)" style="fill: none; stroke: #ffffff; stroke-opacity: 0.3; stroke-linecap: round"/>
     </g>
     <g id="line2d_2"/>
     <g id="text_1">
      <!-- 0 -->
      <g style="fill: #262626" transform="translate(45.240469 542.263062) scale(0.1 -0.1)">
       <defs>
        <path id="ArialMT-30" d="M 266 2259 
Q 266 3072 433 3567 
Q 600 4063 929 4331 
Q 1259 4600 1759 4600 
Q 2128 4600 2406 4451 
Q 2684 4303 2865 4023 
Q 3047 3744 3150 3342 
Q 3253 2941 3253 2259 
Q 3253 1453 3087 958 
Q 2922 463 2592 192 
Q 2263 -78 1759 -78 
Q 1097 -78 719 397 
Q 266 969 266 2259 
z
M 844 2259 
Q 844 1131 1108 757 
Q 1372 384 1759 384 
Q 2147 384 2411 759 
Q 2675 1134 2675 2259 
Q 2675 3391 2411 3762 
Q 2147 4134 1753 4134 
Q 1366 4134 1134 3806 
Q 844 3388 844 2259 
z
" transform="scale(0.015625)"/>
       </defs>
       <use xlink:href="#ArialMT-30"/>
      </g>
     </g>
    </g>
    <g id="xtick_2">
     <g id="line2d_3">
      <path d="M 154.062271 528.10525 
L 154.062271 56.192 
" clip-path="url(#pa0e3e784a9)" style="fill: none; stroke: #ffffff; stroke-opacity: 0.3; stroke-linecap: round"/>
     </g>
     <g id="line2d_4"/>
     <g id="text_2">
      <!-- 2 -->
      <g style="fill: #262626" transform="translate(151.281802 542.263062) scale(0.1 -0.1)">
       <defs>
        <path id="ArialMT-32" d="M 3222 541 
L 3222 0 
L 194 0 
Q 188 203 259 391 
Q 375 700 629 1000 
Q 884 1300 1366 1694 
Q 2113 2306 2375 2664 
Q 2638 3022 2638 3341 
Q 2638 3675 2398 3904 
Q 2159 4134 1775 4134 
Q 1369 4134 1125 3890 
Q 881 3647 878 3216 
L 300 3275 
Q 359 3922 746 4261 
Q 1134 4600 1788 4600 
Q 2447 4600 2831 4234 
Q 3216 3869 3216 3328 
Q 3216 3053 3103 2787 
Q 2991 2522 2730 2228 
Q 2469 1934 1863 1422 
Q 1356 997 1212 845 
Q 1069 694 975 541 
L 3222 541 
z
" transform="scale(0.015625)"/>
       </defs>
       <use xlink:href="#ArialMT-32"/>
      </g>
     </g>
    </g>
    <g id="xtick_3">
     <g id="line2d_5">
      <path d="M 260.103604 528.10525 
L 260.103604 56.192 
" clip-path="url(#pa0e3e784a9)" style="fill: none; stroke: #ffffff; stroke-opacity: 0.3; stroke-linecap: round"/>
     </g>
     <g id="line2d_6"/>
     <g id="text_3">
      <!-- 4 -->
      <g style="fill: #262626" transform="translate(257.323135 542.263062) scale(0.1 -0.1)">
       <defs>
        <path id="ArialMT-34" d="M 2069 0 
L 2069 1097 
L 81 1097 
L 81 1613 
L 2172 4581 
L 2631 4581 
L 2631 1613 
L 3250 1613 
L 3250 1097 
L 2631 1097 
L 2631 0 
L 2069 0 
z
M 2069 1613 
L 2069 3678 
L 634 1613 
L 2069 1613 
z
" transform="scale(0.015625)"/>
       </defs>
       <use xlink:href="#ArialMT-34"/>
      </g>
     </g>
    </g>
    <g id="xtick_4">
     <g id="line2d_7">
      <path d="M 366.144937 528.10525 
L 366.144937 56.192 
" clip-path="url(#pa0e3e784a9)" style="fill: none; stroke: #ffffff; stroke-opacity: 0.3; stroke-linecap: round"/>
     </g>
     <g id="line2d_8"/>
     <g id="text_4">
      <!-- 6 -->
      <g style="fill: #262626" transform="translate(363.364469 542.263062) scale(0.1 -0.1)">
       <defs>
        <path id="ArialMT-36" d="M 3184 3459 
L 2625 3416 
Q 2550 3747 2413 3897 
Q 2184 4138 1850 4138 
Q 1581 4138 1378 3988 
Q 1113 3794 959 3422 
Q 806 3050 800 2363 
Q 1003 2672 1297 2822 
Q 1591 2972 1913 2972 
Q 2475 2972 2870 2558 
Q 3266 2144 3266 1488 
Q 3266 1056 3080 686 
Q 2894 316 2569 119 
Q 2244 -78 1831 -78 
Q 1128 -78 684 439 
Q 241 956 241 2144 
Q 241 3472 731 4075 
Q 1159 4600 1884 4600 
Q 2425 4600 2770 4297 
Q 3116 3994 3184 3459 
z
M 888 1484 
Q 888 1194 1011 928 
Q 1134 663 1356 523 
Q 1578 384 1822 384 
Q 2178 384 2434 671 
Q 2691 959 2691 1453 
Q 2691 1928 2437 2201 
Q 2184 2475 1800 2475 
Q 1419 2475 1153 2201 
Q 888 1928 888 1484 
z
" transform="scale(0.015625)"/>
       </defs>
       <use xlink:href="#ArialMT-36"/>
      </g>
     </g>
    </g>
    <g id="xtick_5">
     <g id="line2d_9">
      <path d="M 472.186271 528.10525 
L 472.186271 56.192 
" clip-path="url(#pa0e3e784a9)" style="fill: none; stroke: #ffffff; stroke-opacity: 0.3; stroke-linecap: round"/>
     </g>
     <g id="line2d_10"/>
     <g id="text_5">
      <!-- 8 -->
      <g style="fill: #262626" transform="translate(469.405802 542.263062) scale(0.1 -0.1)">
       <defs>
        <path id="ArialMT-38" d="M 1131 2484 
Q 781 2613 612 2850 
Q 444 3088 444 3419 
Q 444 3919 803 4259 
Q 1163 4600 1759 4600 
Q 2359 4600 2725 4251 
Q 3091 3903 3091 3403 
Q 3091 3084 2923 2848 
Q 2756 2613 2416 2484 
Q 2838 2347 3058 2040 
Q 3278 1734 3278 1309 
Q 3278 722 2862 322 
Q 2447 -78 1769 -78 
Q 1091 -78 675 323 
Q 259 725 259 1325 
Q 259 1772 486 2073 
Q 713 2375 1131 2484 
z
M 1019 3438 
Q 1019 3113 1228 2906 
Q 1438 2700 1772 2700 
Q 2097 2700 2305 2904 
Q 2513 3109 2513 3406 
Q 2513 3716 2298 3927 
Q 2084 4138 1766 4138 
Q 1444 4138 1231 3931 
Q 1019 3725 1019 3438 
z
M 838 1322 
Q 838 1081 952 856 
Q 1066 631 1291 507 
Q 1516 384 1775 384 
Q 2178 384 2440 643 
Q 2703 903 2703 1303 
Q 2703 1709 2433 1975 
Q 2163 2241 1756 2241 
Q 1359 2241 1098 1978 
Q 838 1716 838 1322 
z
" transform="scale(0.015625)"/>
       </defs>
       <use xlink:href="#ArialMT-38"/>
      </g>
     </g>
    </g>
    <g id="xtick_6">
     <g id="line2d_11">
      <path d="M 578.227604 528.10525 
L 578.227604 56.192 
" clip-path="url(#pa0e3e784a9)" style="fill: none; stroke: #ffffff; stroke-opacity: 0.3; stroke-linecap: round"/>
     </g>
     <g id="line2d_12"/>
     <g id="text_6">
      <!-- 10 -->
      <g style="fill: #262626" transform="translate(572.666667 542.263062) scale(0.1 -0.1)">
       <defs>
        <path id="ArialMT-31" d="M 2384 0 
L 1822 0 
L 1822 3584 
Q 1619 3391 1289 3197 
Q 959 3003 697 2906 
L 697 3450 
Q 1169 3672 1522 3987 
Q 1875 4303 2022 4600 
L 2384 4600 
L 2384 0 
z
" transform="scale(0.015625)"/>
       </defs>
       <use xlink:href="#ArialMT-31"/>
       <use xlink:href="#ArialMT-30" transform="translate(55.615234 0)"/>
      </g>
     </g>
    </g>
    <g id="xtick_7">
     <g id="line2d_13">
      <path d="M 684.268937 528.10525 
L 684.268937 56.192 
" clip-path="url(#pa0e3e784a9)" style="fill: none; stroke: #ffffff; stroke-opacity: 0.3; stroke-linecap: round"/>
     </g>
     <g id="line2d_14"/>
     <g id="text_7">
      <!-- 12 -->
      <g style="fill: #262626" transform="translate(678.708 542.263062) scale(0.1 -0.1)">
       <use xlink:href="#ArialMT-31"/>
       <use xlink:href="#ArialMT-32" transform="translate(55.615234 0)"/>
      </g>
     </g>
    </g>
    <g id="xtick_8">
     <g id="line2d_15">
      <path d="M 790.310271 528.10525 
L 790.310271 56.192 
" clip-path="url(#pa0e3e784a9)" style="fill: none; stroke: #ffffff; stroke-opacity: 0.3; stroke-linecap: round"/>
     </g>
     <g id="line2d_16"/>
     <g id="text_8">
      <!-- 14 -->
      <g style="fill: #262626" transform="translate(784.749333 542.263062) scale(0.1 -0.1)">
       <use xlink:href="#ArialMT-31"/>
       <use xlink:href="#ArialMT-34" transform="translate(55.615234 0)"/>
      </g>
     </g>
    </g>
    <g id="text_9">
     <!-- Session Number -->
     <g style="fill: #262626" transform="translate(390.440469 558.2715) scale(0.14 -0.14)">
      <defs>
       <path id="Arial-BoldMT-53" d="M 231 1491 
L 1131 1578 
Q 1213 1125 1461 912 
Q 1709 700 2131 700 
Q 2578 700 2804 889 
Q 3031 1078 3031 1331 
Q 3031 1494 2936 1608 
Q 2841 1722 2603 1806 
Q 2441 1863 1863 2006 
Q 1119 2191 819 2459 
Q 397 2838 397 3381 
Q 397 3731 595 4036 
Q 794 4341 1167 4500 
Q 1541 4659 2069 4659 
Q 2931 4659 3367 4281 
Q 3803 3903 3825 3272 
L 2900 3231 
Q 2841 3584 2645 3739 
Q 2450 3894 2059 3894 
Q 1656 3894 1428 3728 
Q 1281 3622 1281 3444 
Q 1281 3281 1419 3166 
Q 1594 3019 2269 2859 
Q 2944 2700 3267 2529 
Q 3591 2359 3773 2064 
Q 3956 1769 3956 1334 
Q 3956 941 3737 597 
Q 3519 253 3119 86 
Q 2719 -81 2122 -81 
Q 1253 -81 787 320 
Q 322 722 231 1491 
z
" transform="scale(0.015625)"/>
       <path id="Arial-BoldMT-65" d="M 2381 1056 
L 3256 909 
Q 3088 428 2723 176 
Q 2359 -75 1813 -75 
Q 947 -75 531 491 
Q 203 944 203 1634 
Q 203 2459 634 2926 
Q 1066 3394 1725 3394 
Q 2466 3394 2894 2905 
Q 3322 2416 3303 1406 
L 1103 1406 
Q 1113 1016 1316 798 
Q 1519 581 1822 581 
Q 2028 581 2168 693 
Q 2309 806 2381 1056 
z
M 2431 1944 
Q 2422 2325 2234 2523 
Q 2047 2722 1778 2722 
Q 1491 2722 1303 2513 
Q 1116 2303 1119 1944 
L 2431 1944 
z
" transform="scale(0.015625)"/>
       <path id="Arial-BoldMT-73" d="M 150 947 
L 1031 1081 
Q 1088 825 1259 692 
Q 1431 559 1741 559 
Q 2081 559 2253 684 
Q 2369 772 2369 919 
Q 2369 1019 2306 1084 
Q 2241 1147 2013 1200 
Q 950 1434 666 1628 
Q 272 1897 272 2375 
Q 272 2806 612 3100 
Q 953 3394 1669 3394 
Q 2350 3394 2681 3172 
Q 3013 2950 3138 2516 
L 2309 2363 
Q 2256 2556 2107 2659 
Q 1959 2763 1684 2763 
Q 1338 2763 1188 2666 
Q 1088 2597 1088 2488 
Q 1088 2394 1175 2328 
Q 1294 2241 1995 2081 
Q 2697 1922 2975 1691 
Q 3250 1456 3250 1038 
Q 3250 581 2869 253 
Q 2488 -75 1741 -75 
Q 1063 -75 667 200 
Q 272 475 150 947 
z
" transform="scale(0.015625)"/>
       <path id="Arial-BoldMT-69" d="M 459 3769 
L 459 4581 
L 1338 4581 
L 1338 3769 
L 459 3769 
z
M 459 0 
L 459 3319 
L 1338 3319 
L 1338 0 
L 459 0 
z
" transform="scale(0.015625)"/>
       <path id="Arial-BoldMT-6f" d="M 256 1706 
Q 256 2144 472 2553 
Q 688 2963 1083 3178 
Q 1478 3394 1966 3394 
Q 2719 3394 3200 2905 
Q 3681 2416 3681 1669 
Q 3681 916 3195 420 
Q 2709 -75 1972 -75 
Q 1516 -75 1102 131 
Q 688 338 472 736 
Q 256 1134 256 1706 
z
M 1156 1659 
Q 1156 1166 1390 903 
Q 1625 641 1969 641 
Q 2313 641 2545 903 
Q 2778 1166 2778 1666 
Q 2778 2153 2545 2415 
Q 2313 2678 1969 2678 
Q 1625 2678 1390 2415 
Q 1156 2153 1156 1659 
z
" transform="scale(0.015625)"/>
       <path id="Arial-BoldMT-6e" d="M 3478 0 
L 2600 0 
L 2600 1694 
Q 2600 2231 2544 2389 
Q 2488 2547 2361 2634 
Q 2234 2722 2056 2722 
Q 1828 2722 1647 2597 
Q 1466 2472 1398 2265 
Q 1331 2059 1331 1503 
L 1331 0 
L 453 0 
L 453 3319 
L 1269 3319 
L 1269 2831 
Q 1703 3394 2363 3394 
Q 2653 3394 2893 3289 
Q 3134 3184 3257 3021 
Q 3381 2859 3429 2653 
Q 3478 2447 3478 2063 
L 3478 0 
z
" transform="scale(0.015625)"/>
       <path id="Arial-BoldMT-20" transform="scale(0.015625)"/>
       <path id="Arial-BoldMT-4e" d="M 475 0 
L 475 4581 
L 1375 4581 
L 3250 1522 
L 3250 4581 
L 4109 4581 
L 4109 0 
L 3181 0 
L 1334 2988 
L 1334 0 
L 475 0 
z
" transform="scale(0.015625)"/>
       <path id="Arial-BoldMT-75" d="M 2644 0 
L 2644 497 
Q 2463 231 2167 78 
Q 1872 -75 1544 -75 
Q 1209 -75 943 72 
Q 678 219 559 484 
Q 441 750 441 1219 
L 441 3319 
L 1319 3319 
L 1319 1794 
Q 1319 1094 1367 936 
Q 1416 778 1544 686 
Q 1672 594 1869 594 
Q 2094 594 2272 717 
Q 2450 841 2515 1023 
Q 2581 1206 2581 1919 
L 2581 3319 
L 3459 3319 
L 3459 0 
L 2644 0 
z
" transform="scale(0.015625)"/>
       <path id="Arial-BoldMT-6d" d="M 394 3319 
L 1203 3319 
L 1203 2866 
Q 1638 3394 2238 3394 
Q 2556 3394 2790 3262 
Q 3025 3131 3175 2866 
Q 3394 3131 3647 3262 
Q 3900 3394 4188 3394 
Q 4553 3394 4806 3245 
Q 5059 3097 5184 2809 
Q 5275 2597 5275 2122 
L 5275 0 
L 4397 0 
L 4397 1897 
Q 4397 2391 4306 2534 
Q 4184 2722 3931 2722 
Q 3747 2722 3584 2609 
Q 3422 2497 3350 2280 
Q 3278 2063 3278 1594 
L 3278 0 
L 2400 0 
L 2400 1819 
Q 2400 2303 2353 2443 
Q 2306 2584 2207 2653 
Q 2109 2722 1941 2722 
Q 1738 2722 1575 2612 
Q 1413 2503 1342 2297 
Q 1272 2091 1272 1613 
L 1272 0 
L 394 0 
L 394 3319 
z
" transform="scale(0.015625)"/>
       <path id="Arial-BoldMT-62" d="M 422 0 
L 422 4581 
L 1300 4581 
L 1300 2931 
Q 1706 3394 2263 3394 
Q 2869 3394 3266 2955 
Q 3663 2516 3663 1694 
Q 3663 844 3258 384 
Q 2853 -75 2275 -75 
Q 1991 -75 1714 67 
Q 1438 209 1238 488 
L 1238 0 
L 422 0 
z
M 1294 1731 
Q 1294 1216 1456 969 
Q 1684 619 2063 619 
Q 2353 619 2558 867 
Q 2763 1116 2763 1650 
Q 2763 2219 2556 2470 
Q 2350 2722 2028 2722 
Q 1713 2722 1503 2476 
Q 1294 2231 1294 1731 
z
" transform="scale(0.015625)"/>
       <path id="Arial-BoldMT-72" d="M 1300 0 
L 422 0 
L 422 3319 
L 1238 3319 
L 1238 2847 
Q 1447 3181 1614 3287 
Q 1781 3394 1994 3394 
Q 2294 3394 2572 3228 
L 2300 2463 
Q 2078 2606 1888 2606 
Q 1703 2606 1575 2504 
Q 1447 2403 1373 2137 
Q 1300 1872 1300 1025 
L 1300 0 
z
" transform="scale(0.015625)"/>
      </defs>
      <use xlink:href="#Arial-BoldMT-53"/>
      <use xlink:href="#Arial-BoldMT-65" transform="translate(66.699219 0)"/>
      <use xlink:href="#Arial-BoldMT-73" transform="translate(122.314453 0)"/>
      <use xlink:href="#Arial-BoldMT-73" transform="translate(177.929688 0)"/>
      <use xlink:href="#Arial-BoldMT-69" transform="translate(233.544922 0)"/>
      <use xlink:href="#Arial-BoldMT-6f" transform="translate(261.328125 0)"/>
      <use xlink:href="#Arial-BoldMT-6e" transform="translate(322.412109 0)"/>
      <use xlink:href="#Arial-BoldMT-20" transform="translate(383.496094 0)"/>
      <use xlink:href="#Arial-BoldMT-4e" transform="translate(411.279297 0)"/>
      <use xlink:href="#Arial-BoldMT-75" transform="translate(483.496094 0)"/>
      <use xlink:href="#Arial-BoldMT-6d" transform="translate(544.580078 0)"/>
      <use xlink:href="#Arial-BoldMT-62" transform="translate(633.496094 0)"/>
      <use xlink:href="#Arial-BoldMT-65" transform="translate(694.580078 0)"/>
      <use xlink:href="#Arial-BoldMT-72" transform="translate(750.195312 0)"/>
     </g>
    </g>
   </g>
   <g id="matplotlib.axis_2">
    <g id="ytick_1">
     <g id="line2d_17">
      <path d="M 48.020938 528.10525 
L 843.330937 528.10525 
" clip-path="url(#pa0e3e784a9)" style="fill: none; stroke: #ffffff; stroke-opacity: 0.3; stroke-linecap: round"/>
     </g>
     <g id="line2d_18"/>
     <g id="text_10">
      <!-- 0 -->
      <g style="fill: #262626" transform="translate(35.46 531.684156) scale(0.1 -0.1)">
       <use xlink:href="#ArialMT-30"/>
      </g>
     </g>
    </g>
    <g id="ytick_2">
     <g id="line2d_19">
      <path d="M 48.020938 433.7226 
L 843.330937 433.7226 
" clip-path="url(#pa0e3e784a9)" style="fill: none; stroke: #ffffff; stroke-opacity: 0.3; stroke-linecap: round"/>
     </g>
     <g id="line2d_20"/>
     <g id="text_11">
      <!-- 20 -->
      <g style="fill: #262626" transform="translate(29.899062 437.301506) scale(0.1 -0.1)">
       <use xlink:href="#ArialMT-32"/>
       <use xlink:href="#ArialMT-30" transform="translate(55.615234 0)"/>
      </g>
     </g>
    </g>
    <g id="ytick_3">
     <g id="line2d_21">
      <path d="M 48.020938 339.33995 
L 843.330937 339.33995 
" clip-path="url(#pa0e3e784a9)" style="fill: none; stroke: #ffffff; stroke-opacity: 0.3; stroke-linecap: round"/>
     </g>
     <g id="line2d_22"/>
     <g id="text_12">
      <!-- 40 -->
      <g style="fill: #262626" transform="translate(29.899062 342.918856) scale(0.1 -0.1)">
       <use xlink:href="#ArialMT-34"/>
       <use xlink:href="#ArialMT-30" transform="translate(55.615234 0)"/>
      </g>
     </g>
    </g>
    <g id="ytick_4">
     <g id="line2d_23">
      <path d="M 48.020938 244.9573 
L 843.330937 244.9573 
" clip-path="url(#pa0e3e784a9)" style="fill: none; stroke: #ffffff; stroke-opacity: 0.3; stroke-linecap: round"/>
     </g>
     <g id="line2d_24"/>
     <g id="text_13">
      <!-- 60 -->
      <g style="fill: #262626" transform="translate(29.899062 248.536206) scale(0.1 -0.1)">
       <use xlink:href="#ArialMT-36"/>
       <use xlink:href="#ArialMT-30" transform="translate(55.615234 0)"/>
      </g>
     </g>
    </g>
    <g id="ytick_5">
     <g id="line2d_25">
      <path d="M 48.020938 150.57465 
L 843.330937 150.57465 
" clip-path="url(#pa0e3e784a9)" style="fill: none; stroke: #ffffff; stroke-opacity: 0.3; stroke-linecap: round"/>
     </g>
     <g id="line2d_26"/>
     <g id="text_14">
      <!-- 80 -->
      <g style="fill: #262626" transform="translate(29.899062 154.153556) scale(0.1 -0.1)">
       <use xlink:href="#ArialMT-38"/>
       <use xlink:href="#ArialMT-30" transform="translate(55.615234 0)"/>
      </g>
     </g>
    </g>
    <g id="ytick_6">
     <g id="line2d_27">
      <path d="M 48.020938 56.192 
L 843.330937 56.192 
" clip-path="url(#pa0e3e784a9)" style="fill: none; stroke: #ffffff; stroke-opacity: 0.3; stroke-linecap: round"/>
     </g>
     <g id="line2d_28"/>
     <g id="text_15">
      <!-- 100 -->
      <g style="fill: #262626" transform="translate(24.338125 59.770906) scale(0.1 -0.1)">
       <use xlink:href="#ArialMT-31"/>
       <use xlink:href="#ArialMT-30" transform="translate(55.615234 0)"/>
       <use xlink:href="#ArialMT-30" transform="translate(111.230469 0)"/>
      </g>
     </g>
    </g>
    <g id="text_16">
     <!-- Success Rate (%) -->
     <g style="fill: #262626" transform="translate(17.391562 350.503469) rotate(-90) scale(0.14 -0.14)">
      <defs>
       <path id="Arial-BoldMT-63" d="M 3353 2338 
L 2488 2181 
Q 2444 2441 2289 2572 
Q 2134 2703 1888 2703 
Q 1559 2703 1364 2476 
Q 1169 2250 1169 1719 
Q 1169 1128 1367 884 
Q 1566 641 1900 641 
Q 2150 641 2309 783 
Q 2469 925 2534 1272 
L 3397 1125 
Q 3263 531 2881 228 
Q 2500 -75 1859 -75 
Q 1131 -75 698 384 
Q 266 844 266 1656 
Q 266 2478 700 2936 
Q 1134 3394 1875 3394 
Q 2481 3394 2839 3133 
Q 3197 2872 3353 2338 
z
" transform="scale(0.015625)"/>
       <path id="Arial-BoldMT-52" d="M 469 0 
L 469 4581 
L 2416 4581 
Q 3150 4581 3483 4457 
Q 3816 4334 4016 4018 
Q 4216 3703 4216 3297 
Q 4216 2781 3912 2445 
Q 3609 2109 3006 2022 
Q 3306 1847 3501 1637 
Q 3697 1428 4028 894 
L 4588 0 
L 3481 0 
L 2813 997 
Q 2456 1531 2325 1670 
Q 2194 1809 2047 1861 
Q 1900 1913 1581 1913 
L 1394 1913 
L 1394 0 
L 469 0 
z
M 1394 2644 
L 2078 2644 
Q 2744 2644 2909 2700 
Q 3075 2756 3169 2893 
Q 3263 3031 3263 3238 
Q 3263 3469 3139 3611 
Q 3016 3753 2791 3791 
Q 2678 3806 2116 3806 
L 1394 3806 
L 1394 2644 
z
" transform="scale(0.015625)"/>
       <path id="Arial-BoldMT-61" d="M 1116 2306 
L 319 2450 
Q 453 2931 781 3162 
Q 1109 3394 1756 3394 
Q 2344 3394 2631 3255 
Q 2919 3116 3036 2902 
Q 3153 2688 3153 2116 
L 3144 1091 
Q 3144 653 3186 445 
Q 3228 238 3344 0 
L 2475 0 
Q 2441 88 2391 259 
Q 2369 338 2359 363 
Q 2134 144 1878 34 
Q 1622 -75 1331 -75 
Q 819 -75 523 203 
Q 228 481 228 906 
Q 228 1188 362 1408 
Q 497 1628 739 1745 
Q 981 1863 1438 1950 
Q 2053 2066 2291 2166 
L 2291 2253 
Q 2291 2506 2166 2614 
Q 2041 2722 1694 2722 
Q 1459 2722 1328 2630 
Q 1197 2538 1116 2306 
z
M 2291 1594 
Q 2122 1538 1756 1459 
Q 1391 1381 1278 1306 
Q 1106 1184 1106 997 
Q 1106 813 1243 678 
Q 1381 544 1594 544 
Q 1831 544 2047 700 
Q 2206 819 2256 991 
Q 2291 1103 2291 1419 
L 2291 1594 
z
" transform="scale(0.015625)"/>
       <path id="Arial-BoldMT-74" d="M 1981 3319 
L 1981 2619 
L 1381 2619 
L 1381 1281 
Q 1381 875 1398 808 
Q 1416 741 1477 697 
Q 1538 653 1625 653 
Q 1747 653 1978 738 
L 2053 56 
Q 1747 -75 1359 -75 
Q 1122 -75 931 4 
Q 741 84 652 211 
Q 563 338 528 553 
Q 500 706 500 1172 
L 500 2619 
L 97 2619 
L 97 3319 
L 500 3319 
L 500 3978 
L 1381 4491 
L 1381 3319 
L 1981 3319 
z
" transform="scale(0.015625)"/>
       <path id="Arial-BoldMT-28" d="M 1916 -1347 
L 1313 -1347 
Q 834 -625 584 153 
Q 334 931 334 1659 
Q 334 2563 644 3369 
Q 913 4069 1325 4659 
L 1925 4659 
Q 1497 3713 1336 3048 
Q 1175 2384 1175 1641 
Q 1175 1128 1270 590 
Q 1366 53 1531 -431 
Q 1641 -750 1916 -1347 
z
" transform="scale(0.015625)"/>
       <path id="Arial-BoldMT-25" d="M 278 3450 
Q 278 4066 548 4362 
Q 819 4659 1281 4659 
Q 1759 4659 2029 4364 
Q 2300 4069 2300 3450 
Q 2300 2834 2029 2537 
Q 1759 2241 1297 2241 
Q 819 2241 548 2536 
Q 278 2831 278 3450 
z
M 963 3456 
Q 963 3009 1066 2856 
Q 1144 2744 1281 2744 
Q 1422 2744 1500 2856 
Q 1600 3009 1600 3456 
Q 1600 3903 1500 4053 
Q 1422 4169 1281 4169 
Q 1144 4169 1066 4056 
Q 963 3903 963 3456 
z
M 1950 -175 
L 1300 -175 
L 3741 4659 
L 4372 4659 
L 1950 -175 
z
M 3369 1028 
Q 3369 1644 3639 1941 
Q 3909 2238 4378 2238 
Q 4850 2238 5120 1941 
Q 5391 1644 5391 1028 
Q 5391 409 5120 112 
Q 4850 -184 4388 -184 
Q 3909 -184 3639 112 
Q 3369 409 3369 1028 
z
M 4053 1031 
Q 4053 584 4156 434 
Q 4234 319 4372 319 
Q 4513 319 4588 431 
Q 4691 584 4691 1031 
Q 4691 1478 4591 1631 
Q 4513 1744 4372 1744 
Q 4231 1744 4156 1631 
Q 4053 1478 4053 1031 
z
" transform="scale(0.015625)"/>
       <path id="Arial-BoldMT-29" d="M 216 -1347 
Q 475 -791 581 -494 
Q 688 -197 778 190 
Q 869 578 912 926 
Q 956 1275 956 1641 
Q 956 2384 797 3048 
Q 638 3713 209 4659 
L 806 4659 
Q 1278 3988 1539 3234 
Q 1800 2481 1800 1706 
Q 1800 1053 1594 306 
Q 1359 -531 822 -1347 
L 216 -1347 
z
" transform="scale(0.015625)"/>
      </defs>
      <use xlink:href="#Arial-BoldMT-53"/>
      <use xlink:href="#Arial-BoldMT-75" transform="translate(66.699219 0)"/>
      <use xlink:href="#Arial-BoldMT-63" transform="translate(127.783203 0)"/>
      <use xlink:href="#Arial-BoldMT-63" transform="translate(183.398438 0)"/>
      <use xlink:href="#Arial-BoldMT-65" transform="translate(239.013672 0)"/>
      <use xlink:href="#Arial-BoldMT-73" transform="translate(294.628906 0)"/>
      <use xlink:href="#Arial-BoldMT-73" transform="translate(350.244141 0)"/>
      <use xlink:href="#Arial-BoldMT-20" transform="translate(405.859375 0)"/>
      <use xlink:href="#Arial-BoldMT-52" transform="translate(433.642578 0)"/>
      <use xlink:href="#Arial-BoldMT-61" transform="translate(505.859375 0)"/>
      <use xlink:href="#Arial-BoldMT-74" transform="translate(561.474609 0)"/>
      <use xlink:href="#Arial-BoldMT-65" transform="translate(594.775391 0)"/>
      <use xlink:href="#Arial-BoldMT-20" transform="translate(650.390625 0)"/>
      <use xlink:href="#Arial-BoldMT-28" transform="translate(678.173828 0)"/>
      <use xlink:href="#Arial-BoldMT-25" transform="translate(711.474609 0)"/>
      <use xlink:href="#Arial-BoldMT-29" transform="translate(800.390625 0)"/>
     </g>
    </g>
   </g>
   <g id="line2d_29">
    <path d="M 48.020938 292.148625 
L 56.000636 282.349317 
L 63.980335 272.962444 
L 71.960034 263.932472 
L 79.939733 255.203866 
L 90.579332 243.938531 
L 103.87883 230.2709 
L 141.117426 192.351678 
L 151.757024 181.044706 
L 175.696121 155.15608 
L 181.015921 149.940721 
L 186.33572 145.156376 
L 188.99562 142.959819 
L 191.655519 140.911799 
L 194.315419 139.025909 
L 196.975319 137.315744 
L 199.635218 135.794898 
L 202.295118 134.476967 
L 204.955018 133.375543 
L 207.614917 132.504171 
L 210.274817 131.865716 
L 212.934717 131.439218 
L 215.594616 131.200493 
L 218.254516 131.125357 
L 220.914416 131.189626 
L 226.234215 131.639641 
L 234.213914 132.755599 
L 239.533713 133.511381 
L 244.853513 134.050893 
L 247.513412 134.179088 
L 250.173312 134.180663 
L 252.833212 134.031435 
L 255.493111 133.707219 
L 258.153011 133.183831 
L 260.812911 132.437239 
L 263.47281 131.458976 
L 266.13271 130.269463 
L 268.79261 128.89226 
L 271.452509 127.350926 
L 276.772309 123.870095 
L 282.092108 120.015443 
L 298.051506 108.093262 
L 303.371305 104.628028 
L 306.031205 103.09683 
L 308.691105 101.731324 
L 311.351004 100.555069 
L 314.010904 99.591351 
L 316.670804 98.847178 
L 319.330703 98.304321 
L 321.990603 97.942383 
L 324.650503 97.740963 
L 327.310402 97.679665 
L 332.630202 97.895834 
L 337.950001 98.427701 
L 351.249499 100.067615 
L 356.569299 100.419305 
L 359.229198 100.448354 
L 361.889098 100.352339 
L 364.548998 100.110864 
L 367.208897 99.703924 
L 369.868797 99.126882 
L 372.528697 98.395063 
L 375.188596 97.525126 
L 380.508396 95.437535 
L 385.828195 92.99738 
L 393.807894 88.967621 
L 401.787593 84.894246 
L 407.107392 82.376551 
L 412.427192 80.17265 
L 415.087091 79.23002 
L 417.746991 78.415815 
L 420.406891 77.746189 
L 423.06679 77.22365 
L 425.72669 76.835814 
L 431.046489 76.411713 
L 436.366289 76.368801 
L 441.686088 76.601997 
L 449.665787 77.239619 
L 460.305386 78.075378 
L 465.625185 78.250646 
L 470.944984 78.124061 
L 476.264784 77.604082 
L 481.584583 76.710692 
L 486.904382 75.51872 
L 492.224182 74.103378 
L 500.203881 71.726071 
L 513.503379 67.712537 
L 518.823178 66.308516 
L 524.142978 65.132392 
L 529.462777 64.249814 
L 534.782576 63.65574 
L 540.102376 63.313443 
L 545.422175 63.186051 
L 550.741974 63.236688 
L 558.721673 63.565789 
L 569.361272 64.283534 
L 585.32067 65.370426 
L 595.960269 65.827708 
L 603.939968 65.981591 
L 611.919667 65.946564 
L 619.899366 65.698465 
L 627.879065 65.213136 
L 635.858764 64.46999 
L 643.838463 63.506931 
L 659.797861 61.264999 
L 673.097359 59.488715 
L 681.077058 58.643589 
L 689.056757 58.065172 
L 697.036456 57.758396 
L 705.016155 57.668956 
L 715.655754 57.791284 
L 758.214148 58.679542 
L 774.173546 58.638153 
L 790.132944 58.380789 
L 808.752242 57.831349 
L 827.37154 57.04052 
L 843.330937 56.192 
L 843.330937 56.192 
" clip-path="url(#pa0e3e784a9)" style="fill: none; stroke: #2e86ab; stroke-width: 3; stroke-linecap: round"/>
   </g>
   <g id="line2d_30">
    <defs>
     <path id="mc48afb4404" d="M 0 4 
C 1.060812 4 2.078319 3.578535 2.828427 2.828427 
C 3.578535 2.078319 4 1.060812 4 0 
C 4 -1.060812 3.578535 -2.078319 2.828427 -2.828427 
C 2.078319 -3.578535 1.060812 -4 0 -4 
C -1.060812 -4 -2.078319 -3.578535 -2.828427 -2.828427 
C -3.578535 -2.078319 -4 -1.060812 -4 0 
C -4 1.060812 -3.578535 2.078319 -2.828427 2.828427 
C -2.078319 3.578535 -1.060812 4 0 4 
z
"/>
    </defs>
    <g clip-path="url(#pa0e3e784a9)">
     <use xlink:href="#mc48afb4404" x="48.020938" y="292.148625" style="fill: #2e86ab"/>
     <use xlink:href="#mc48afb4404" x="101.041604" y="233.159469" style="fill: #2e86ab"/>
     <use xlink:href="#mc48afb4404" x="154.062271" y="178.53988" style="fill: #2e86ab"/>
     <use xlink:href="#mc48afb4404" x="207.082937" y="132.659425" style="fill: #2e86ab"/>
     <use xlink:href="#mc48afb4404" x="260.103604" y="132.659425" style="fill: #2e86ab"/>
     <use xlink:href="#mc48afb4404" x="313.124271" y="99.887671" style="fill: #2e86ab"/>
     <use xlink:href="#mc48afb4404" x="366.144937" y="99.887671" style="fill: #2e86ab"/>
     <use xlink:href="#mc48afb4404" x="419.165604" y="78.039836" style="fill: #2e86ab"/>
     <use xlink:href="#mc48afb4404" x="472.186271" y="78.039836" style="fill: #2e86ab"/>
     <use xlink:href="#mc48afb4404" x="525.206937" y="64.931134" style="fill: #2e86ab"/>
     <use xlink:href="#mc48afb4404" x="578.227604" y="64.931134" style="fill: #2e86ab"/>
     <use xlink:href="#mc48afb4404" x="631.248271" y="64.931134" style="fill: #2e86ab"/>
     <use xlink:href="#mc48afb4404" x="684.268937" y="58.376784" style="fill: #2e86ab"/>
     <use xlink:href="#mc48afb4404" x="737.289604" y="58.376784" style="fill: #2e86ab"/>
     <use xlink:href="#mc48afb4404" x="790.310271" y="58.376784" style="fill: #2e86ab"/>
     <use xlink:href="#mc48afb4404" x="843.330937" y="56.192" style="fill: #2e86ab"/>
    </g>
   </g>
   <g id="patch_3">
    <path d="M 48.020938 528.10525 
L 48.020938 56.192 
" style="fill: none; stroke: #ffffff; stroke-width: 0.5; stroke-linejoin: miter; stroke-linecap: square"/>
   </g>
   <g id="patch_4">
    <path d="M 48.020938 528.10525 
L 843.330937 528.10525 
" style="fill: none; stroke: #ffffff; stroke-width: 0.5; stroke-linejoin: miter; stroke-linecap: square"/>
   </g>
   <g id="patch_5">
    <path d="M 67.197802 259.915849 
Q 55.808255 273.674557 48.914486 289.993143 
" style="fill: none; stroke: #808080; stroke-width: 0.3; stroke-linecap: round"/>
    <path d="M 52.313432 287.086743 
L 48.914486 289.993143 
L 48.628734 285.530146 
" style="fill: none; stroke: #808080; stroke-width: 0.3; stroke-linecap: round"/>
   </g>
   <g id="text_17">
    <!-- Start: 50.0% -->
    <g style="fill: #262626" transform="translate(47.01799 254.395565) scale(0.1 -0.1)">
     <defs>
      <path id="ArialMT-53" d="M 288 1472 
L 859 1522 
Q 900 1178 1048 958 
Q 1197 738 1509 602 
Q 1822 466 2213 466 
Q 2559 466 2825 569 
Q 3091 672 3220 851 
Q 3350 1031 3350 1244 
Q 3350 1459 3225 1620 
Q 3100 1781 2813 1891 
Q 2628 1963 1997 2114 
Q 1366 2266 1113 2400 
Q 784 2572 623 2826 
Q 463 3081 463 3397 
Q 463 3744 659 4045 
Q 856 4347 1234 4503 
Q 1613 4659 2075 4659 
Q 2584 4659 2973 4495 
Q 3363 4331 3572 4012 
Q 3781 3694 3797 3291 
L 3216 3247 
Q 3169 3681 2898 3903 
Q 2628 4125 2100 4125 
Q 1550 4125 1298 3923 
Q 1047 3722 1047 3438 
Q 1047 3191 1225 3031 
Q 1400 2872 2139 2705 
Q 2878 2538 3153 2413 
Q 3553 2228 3743 1945 
Q 3934 1663 3934 1294 
Q 3934 928 3725 604 
Q 3516 281 3123 101 
Q 2731 -78 2241 -78 
Q 1619 -78 1198 103 
Q 778 284 539 648 
Q 300 1013 288 1472 
z
" transform="scale(0.015625)"/>
      <path id="ArialMT-74" d="M 1650 503 
L 1731 6 
Q 1494 -44 1306 -44 
Q 1000 -44 831 53 
Q 663 150 594 308 
Q 525 466 525 972 
L 525 2881 
L 113 2881 
L 113 3319 
L 525 3319 
L 525 4141 
L 1084 4478 
L 1084 3319 
L 1650 3319 
L 1650 2881 
L 1084 2881 
L 1084 941 
Q 1084 700 1114 631 
Q 1144 563 1211 522 
Q 1278 481 1403 481 
Q 1497 481 1650 503 
z
" transform="scale(0.015625)"/>
      <path id="ArialMT-61" d="M 2588 409 
Q 2275 144 1986 34 
Q 1697 -75 1366 -75 
Q 819 -75 525 192 
Q 231 459 231 875 
Q 231 1119 342 1320 
Q 453 1522 633 1644 
Q 813 1766 1038 1828 
Q 1203 1872 1538 1913 
Q 2219 1994 2541 2106 
Q 2544 2222 2544 2253 
Q 2544 2597 2384 2738 
Q 2169 2928 1744 2928 
Q 1347 2928 1158 2789 
Q 969 2650 878 2297 
L 328 2372 
Q 403 2725 575 2942 
Q 747 3159 1072 3276 
Q 1397 3394 1825 3394 
Q 2250 3394 2515 3294 
Q 2781 3194 2906 3042 
Q 3031 2891 3081 2659 
Q 3109 2516 3109 2141 
L 3109 1391 
Q 3109 606 3145 398 
Q 3181 191 3288 0 
L 2700 0 
Q 2613 175 2588 409 
z
M 2541 1666 
Q 2234 1541 1622 1453 
Q 1275 1403 1131 1340 
Q 988 1278 909 1158 
Q 831 1038 831 891 
Q 831 666 1001 516 
Q 1172 366 1500 366 
Q 1825 366 2078 508 
Q 2331 650 2450 897 
Q 2541 1088 2541 1459 
L 2541 1666 
z
" transform="scale(0.015625)"/>
      <path id="ArialMT-72" d="M 416 0 
L 416 3319 
L 922 3319 
L 922 2816 
Q 1116 3169 1280 3281 
Q 1444 3394 1641 3394 
Q 1925 3394 2219 3213 
L 2025 2691 
Q 1819 2813 1613 2813 
Q 1428 2813 1281 2702 
Q 1134 2591 1072 2394 
Q 978 2094 978 1738 
L 978 0 
L 416 0 
z
" transform="scale(0.015625)"/>
      <path id="ArialMT-3a" d="M 578 2678 
L 578 3319 
L 1219 3319 
L 1219 2678 
L 578 2678 
z
M 578 0 
L 578 641 
L 1219 641 
L 1219 0 
L 578 0 
z
" transform="scale(0.015625)"/>
      <path id="ArialMT-20" transform="scale(0.015625)"/>
      <path id="ArialMT-35" d="M 266 1200 
L 856 1250 
Q 922 819 1161 601 
Q 1400 384 1738 384 
Q 2144 384 2425 690 
Q 2706 997 2706 1503 
Q 2706 1984 2436 2262 
Q 2166 2541 1728 2541 
Q 1456 2541 1237 2417 
Q 1019 2294 894 2097 
L 366 2166 
L 809 4519 
L 3088 4519 
L 3088 3981 
L 1259 3981 
L 1013 2750 
Q 1425 3038 1878 3038 
Q 2478 3038 2890 2622 
Q 3303 2206 3303 1553 
Q 3303 931 2941 478 
Q 2500 -78 1738 -78 
Q 1113 -78 717 272 
Q 322 622 266 1200 
z
" transform="scale(0.015625)"/>
      <path id="ArialMT-2e" d="M 581 0 
L 581 641 
L 1222 641 
L 1222 0 
L 581 0 
z
" transform="scale(0.015625)"/>
      <path id="ArialMT-25" d="M 372 3481 
Q 372 3972 619 4315 
Q 866 4659 1334 4659 
Q 1766 4659 2048 4351 
Q 2331 4044 2331 3447 
Q 2331 2866 2045 2552 
Q 1759 2238 1341 2238 
Q 925 2238 648 2547 
Q 372 2856 372 3481 
z
M 1350 4272 
Q 1141 4272 1002 4090 
Q 863 3909 863 3425 
Q 863 2984 1003 2804 
Q 1144 2625 1350 2625 
Q 1563 2625 1702 2806 
Q 1841 2988 1841 3469 
Q 1841 3913 1700 4092 
Q 1559 4272 1350 4272 
z
M 1353 -169 
L 3859 4659 
L 4316 4659 
L 1819 -169 
L 1353 -169 
z
M 3334 1075 
Q 3334 1569 3581 1911 
Q 3828 2253 4300 2253 
Q 4731 2253 5014 1945 
Q 5297 1638 5297 1041 
Q 5297 459 5011 145 
Q 4725 -169 4303 -169 
Q 3888 -169 3611 142 
Q 3334 453 3334 1075 
z
M 4316 1866 
Q 4103 1866 3964 1684 
Q 3825 1503 3825 1019 
Q 3825 581 3965 400 
Q 4106 219 4313 219 
Q 4528 219 4667 400 
Q 4806 581 4806 1063 
Q 4806 1506 4665 1686 
Q 4525 1866 4316 1866 
z
" transform="scale(0.015625)"/>
     </defs>
     <use xlink:href="#ArialMT-53"/>
     <use xlink:href="#ArialMT-74" transform="translate(66.699219 0)"/>
     <use xlink:href="#ArialMT-61" transform="translate(94.482422 0)"/>
     <use xlink:href="#ArialMT-72" transform="translate(150.097656 0)"/>
     <use xlink:href="#ArialMT-74" transform="translate(183.398438 0)"/>
     <use xlink:href="#ArialMT-3a" transform="translate(211.181641 0)"/>
     <use xlink:href="#ArialMT-20" transform="translate(238.964844 0)"/>
     <use xlink:href="#ArialMT-35" transform="translate(266.748047 0)"/>
     <use xlink:href="#ArialMT-30" transform="translate(322.363281 0)"/>
     <use xlink:href="#ArialMT-2e" transform="translate(377.978516 0)"/>
     <use xlink:href="#ArialMT-30" transform="translate(405.761719 0)"/>
     <use xlink:href="#ArialMT-25" transform="translate(461.376953 0)"/>
    </g>
   </g>
   <g id="patch_6">
    <path d="M 824.982975 83.327494 
Q 835.431169 71.947973 842.299257 58.282923 
" style="fill: none; stroke: #808080; stroke-width: 0.3; stroke-linecap: round"/>
    <path d="M 838.715976 60.958757 
L 842.299257 58.282923 
L 842.289956 62.755049 
" style="fill: none; stroke: #808080; stroke-width: 0.3; stroke-linecap: round"/>
   </g>
   <g id="text_18">
    <!-- End: 100.0% -->
    <g style="fill: #262626" transform="translate(788.189354 93.94506) scale(0.1 -0.1)">
     <defs>
      <path id="ArialMT-45" d="M 506 0 
L 506 4581 
L 3819 4581 
L 3819 4041 
L 1113 4041 
L 1113 2638 
L 3647 2638 
L 3647 2100 
L 1113 2100 
L 1113 541 
L 3925 541 
L 3925 0 
L 506 0 
z
" transform="scale(0.015625)"/>
      <path id="ArialMT-6e" d="M 422 0 
L 422 3319 
L 928 3319 
L 928 2847 
Q 1294 3394 1984 3394 
Q 2284 3394 2536 3286 
Q 2788 3178 2913 3003 
Q 3038 2828 3088 2588 
Q 3119 2431 3119 2041 
L 3119 0 
L 2556 0 
L 2556 2019 
Q 2556 2363 2490 2533 
Q 2425 2703 2258 2804 
Q 2091 2906 1866 2906 
Q 1506 2906 1245 2678 
Q 984 2450 984 1813 
L 984 0 
L 422 0 
z
" transform="scale(0.015625)"/>
      <path id="ArialMT-64" d="M 2575 0 
L 2575 419 
Q 2259 -75 1647 -75 
Q 1250 -75 917 144 
Q 584 363 401 755 
Q 219 1147 219 1656 
Q 219 2153 384 2558 
Q 550 2963 881 3178 
Q 1213 3394 1622 3394 
Q 1922 3394 2156 3267 
Q 2391 3141 2538 2938 
L 2538 4581 
L 3097 4581 
L 3097 0 
L 2575 0 
z
M 797 1656 
Q 797 1019 1065 703 
Q 1334 388 1700 388 
Q 2069 388 2326 689 
Q 2584 991 2584 1609 
Q 2584 2291 2321 2609 
Q 2059 2928 1675 2928 
Q 1300 2928 1048 2622 
Q 797 2316 797 1656 
z
" transform="scale(0.015625)"/>
     </defs>
     <use xlink:href="#ArialMT-45"/>
     <use xlink:href="#ArialMT-6e" transform="translate(66.699219 0)"/>
     <use xlink:href="#ArialMT-64" transform="translate(122.314453 0)"/>
     <use xlink:href="#ArialMT-3a" transform="translate(177.929688 0)"/>
     <use xlink:href="#ArialMT-20" transform="translate(205.712891 0)"/>
     <use xlink:href="#ArialMT-31" transform="translate(233.496094 0)"/>
     <use xlink:href="#ArialMT-30" transform="translate(289.111328 0)"/>
     <use xlink:href="#ArialMT-30" transform="translate(344.726562 0)"/>
     <use xlink:href="#ArialMT-2e" transform="translate(400.341797 0)"/>
     <use xlink:href="#ArialMT-30" transform="translate(428.125 0)"/>
     <use xlink:href="#ArialMT-25" transform="translate(483.740234 0)"/>
    </g>
   </g>
   <g id="text_19">
    <!-- Skill Progression: Success Rate Increase Over Time -->
    <g style="fill: #262626" transform="translate(247.510937 18.8475) scale(0.16 -0.16)">
     <defs>
      <path id="Arial-BoldMT-6b" d="M 428 0 
L 428 4581 
L 1306 4581 
L 1306 2150 
L 2334 3319 
L 3416 3319 
L 2281 2106 
L 3497 0 
L 2550 0 
L 1716 1491 
L 1306 1063 
L 1306 0 
L 428 0 
z
" transform="scale(0.015625)"/>
      <path id="Arial-BoldMT-6c" d="M 459 0 
L 459 4581 
L 1338 4581 
L 1338 0 
L 459 0 
z
" transform="scale(0.015625)"/>
      <path id="Arial-BoldMT-50" d="M 466 0 
L 466 4581 
L 1950 4581 
Q 2794 4581 3050 4513 
Q 3444 4409 3709 4064 
Q 3975 3719 3975 3172 
Q 3975 2750 3822 2462 
Q 3669 2175 3433 2011 
Q 3197 1847 2953 1794 
Q 2622 1728 1994 1728 
L 1391 1728 
L 1391 0 
L 466 0 
z
M 1391 3806 
L 1391 2506 
L 1897 2506 
Q 2444 2506 2628 2578 
Q 2813 2650 2917 2803 
Q 3022 2956 3022 3159 
Q 3022 3409 2875 3571 
Q 2728 3734 2503 3775 
Q 2338 3806 1838 3806 
L 1391 3806 
z
" transform="scale(0.015625)"/>
      <path id="Arial-BoldMT-67" d="M 378 -219 
L 1381 -341 
Q 1406 -516 1497 -581 
Q 1622 -675 1891 -675 
Q 2234 -675 2406 -572 
Q 2522 -503 2581 -350 
Q 2622 -241 2622 53 
L 2622 538 
Q 2228 0 1628 0 
Q 959 0 569 566 
Q 263 1013 263 1678 
Q 263 2513 664 2953 
Q 1066 3394 1663 3394 
Q 2278 3394 2678 2853 
L 2678 3319 
L 3500 3319 
L 3500 341 
Q 3500 -247 3403 -537 
Q 3306 -828 3131 -993 
Q 2956 -1159 2664 -1253 
Q 2372 -1347 1925 -1347 
Q 1081 -1347 728 -1058 
Q 375 -769 375 -325 
Q 375 -281 378 -219 
z
M 1163 1728 
Q 1163 1200 1367 954 
Q 1572 709 1872 709 
Q 2194 709 2416 961 
Q 2638 1213 2638 1706 
Q 2638 2222 2425 2472 
Q 2213 2722 1888 2722 
Q 1572 2722 1367 2476 
Q 1163 2231 1163 1728 
z
" transform="scale(0.015625)"/>
      <path id="Arial-BoldMT-3a" d="M 628 2441 
L 628 3319 
L 1506 3319 
L 1506 2441 
L 628 2441 
z
M 628 0 
L 628 878 
L 1506 878 
L 1506 0 
L 628 0 
z
" transform="scale(0.015625)"/>
      <path id="Arial-BoldMT-49" d="M 438 0 
L 438 4581 
L 1363 4581 
L 1363 0 
L 438 0 
z
" transform="scale(0.015625)"/>
      <path id="Arial-BoldMT-4f" d="M 278 2263 
Q 278 2963 488 3438 
Q 644 3788 914 4066 
Q 1184 4344 1506 4478 
Q 1934 4659 2494 4659 
Q 3506 4659 4114 4031 
Q 4722 3403 4722 2284 
Q 4722 1175 4119 548 
Q 3516 -78 2506 -78 
Q 1484 -78 881 545 
Q 278 1169 278 2263 
z
M 1231 2294 
Q 1231 1516 1590 1114 
Q 1950 713 2503 713 
Q 3056 713 3411 1111 
Q 3766 1509 3766 2306 
Q 3766 3094 3420 3481 
Q 3075 3869 2503 3869 
Q 1931 3869 1581 3476 
Q 1231 3084 1231 2294 
z
" transform="scale(0.015625)"/>
      <path id="Arial-BoldMT-76" d="M 1372 0 
L 34 3319 
L 956 3319 
L 1581 1625 
L 1763 1059 
Q 1834 1275 1853 1344 
Q 1897 1484 1947 1625 
L 2578 3319 
L 3481 3319 
L 2163 0 
L 1372 0 
z
" transform="scale(0.015625)"/>
      <path id="Arial-BoldMT-54" d="M 1497 0 
L 1497 3806 
L 138 3806 
L 138 4581 
L 3778 4581 
L 3778 3806 
L 2422 3806 
L 2422 0 
L 1497 0 
z
" transform="scale(0.015625)"/>
     </defs>
     <use xlink:href="#Arial-BoldMT-53"/>
     <use xlink:href="#Arial-BoldMT-6b" transform="translate(66.699219 0)"/>
     <use xlink:href="#Arial-BoldMT-69" transform="translate(122.314453 0)"/>
     <use xlink:href="#Arial-BoldMT-6c" transform="translate(150.097656 0)"/>
     <use xlink:href="#Arial-BoldMT-6c" transform="translate(177.880859 0)"/>
     <use xlink:href="#Arial-BoldMT-20" transform="translate(205.664062 0)"/>
     <use xlink:href="#Arial-BoldMT-50" transform="translate(233.447266 0)"/>
     <use xlink:href="#Arial-BoldMT-72" transform="translate(300.146484 0)"/>
     <use xlink:href="#Arial-BoldMT-6f" transform="translate(339.0625 0)"/>
     <use xlink:href="#Arial-BoldMT-67" transform="translate(400.146484 0)"/>
     <use xlink:href="#Arial-BoldMT-72" transform="translate(461.230469 0)"/>
     <use xlink:href="#Arial-BoldMT-65" transform="translate(500.146484 0)"/>
     <use xlink:href="#Arial-BoldMT-73" transform="translate(555.761719 0)"/>
     <use xlink:href="#Arial-BoldMT-73" transform="translate(611.376953 0)"/>
     <use xlink:href="#Arial-BoldMT-69" transform="translate(666.992188 0)"/>
     <use xlink:href="#Arial-BoldMT-6f" transform="translate(694.775391 0)"/>
     <use xlink:href="#Arial-BoldMT-6e" transform="translate(755.859375 0)"/>
     <use xlink:href="#Arial-BoldMT-3a" transform="translate(816.943359 0)"/>
     <use xlink:href="#Arial-BoldMT-20" transform="translate(850.244141 0)"/>
     <use xlink:href="#Arial-BoldMT-53" transform="translate(878.027344 0)"/>
     <use xlink:href="#Arial-BoldMT-75" transform="translate(944.726562 0)"/>
     <use xlink:href="#Arial-BoldMT-63" transform="translate(1005.810547 0)"/>
     <use xlink:href="#Arial-BoldMT-63" transform="translate(1061.425781 0)"/>
     <use xlink:href="#Arial-BoldMT-65" transform="translate(1117.041016 0)"/>
     <use xlink:href="#Arial-BoldMT-73" transform="translate(1172.65625 0)"/>
     <use xlink:href="#Arial-BoldMT-73" transform="translate(1228.271484 0)"/>
     <use xlink:href="#Arial-BoldMT-20" transform="translate(1283.886719 0)"/>
     <use xlink:href="#Arial-BoldMT-52" transform="translate(1311.669922 0)"/>
     <use xlink:href="#Arial-BoldMT-61" transform="translate(1383.886719 0)"/>
     <use xlink:href="#Arial-BoldMT-74" transform="translate(1439.501953 0)"/>
     <use xlink:href="#Arial-BoldMT-65" transform="translate(1472.802734 0)"/>
     <use xlink:href="#Arial-BoldMT-20" transform="translate(1528.417969 0)"/>
     <use xlink:href="#Arial-BoldMT-49" transform="translate(1556.201172 0)"/>
     <use xlink:href="#Arial-BoldMT-6e" transform="translate(1583.984375 0)"/>
     <use xlink:href="#Arial-BoldMT-63" transform="translate(1645.068359 0)"/>
     <use xlink:href="#Arial-BoldMT-72" transform="translate(1700.683594 0)"/>
     <use xlink:href="#Arial-BoldMT-65" transform="translate(1739.599609 0)"/>
     <use xlink:href="#Arial-BoldMT-61" transform="translate(1795.214844 0)"/>
     <use xlink:href="#Arial-BoldMT-73" transform="translate(1850.830078 0)"/>
     <use xlink:href="#Arial-BoldMT-65" transform="translate(1906.445312 0)"/>
     <use xlink:href="#Arial-BoldMT-20" transform="translate(1962.060547 0)"/>
     <use xlink:href="#Arial-BoldMT-4f" transform="translate(1989.84375 0)"/>
     <use xlink:href="#Arial-BoldMT-76" transform="translate(2067.626953 0)"/>
     <use xlink:href="#Arial-BoldMT-65" transform="translate(2123.242188 0)"/>
     <use xlink:href="#Arial-BoldMT-72" transform="translate(2178.857422 0)"/>
     <use xlink:href="#Arial-BoldMT-20" transform="translate(2217.773438 0)"/>
     <use xlink:href="#Arial-BoldMT-54" transform="translate(2245.556641 0)"/>
     <use xlink:href="#Arial-BoldMT-69" transform="translate(2304.890625 0)"/>
     <use xlink:href="#Arial-BoldMT-6d" transform="translate(2332.673828 0)"/>
     <use xlink:href="#Arial-BoldMT-65" transform="translate(2421.589844 0)"/>
    </g>
    <!-- (3 Story Points Earned Per Session) -->
    <g style="fill: #262626" transform="translate(309.198437 36.192) scale(0.16 -0.16)">
     <defs>
      <path id="Arial-BoldMT-33" d="M 241 1216 
L 1091 1319 
Q 1131 994 1309 822 
Q 1488 650 1741 650 
Q 2013 650 2198 856 
Q 2384 1063 2384 1413 
Q 2384 1744 2206 1937 
Q 2028 2131 1772 2131 
Q 1603 2131 1369 2066 
L 1466 2781 
Q 1822 2772 2009 2936 
Q 2197 3100 2197 3372 
Q 2197 3603 2059 3740 
Q 1922 3878 1694 3878 
Q 1469 3878 1309 3722 
Q 1150 3566 1116 3266 
L 306 3403 
Q 391 3819 561 4067 
Q 731 4316 1036 4458 
Q 1341 4600 1719 4600 
Q 2366 4600 2756 4188 
Q 3078 3850 3078 3425 
Q 3078 2822 2419 2463 
Q 2813 2378 3048 2084 
Q 3284 1791 3284 1375 
Q 3284 772 2843 347 
Q 2403 -78 1747 -78 
Q 1125 -78 715 280 
Q 306 638 241 1216 
z
" transform="scale(0.015625)"/>
      <path id="Arial-BoldMT-79" d="M 44 3319 
L 978 3319 
L 1772 963 
L 2547 3319 
L 3456 3319 
L 2284 125 
L 2075 -453 
Q 1959 -744 1854 -897 
Q 1750 -1050 1614 -1145 
Q 1478 -1241 1279 -1294 
Q 1081 -1347 831 -1347 
Q 578 -1347 334 -1294 
L 256 -606 
Q 463 -647 628 -647 
Q 934 -647 1081 -467 
Q 1228 -288 1306 -9 
L 44 3319 
z
" transform="scale(0.015625)"/>
      <path id="Arial-BoldMT-45" d="M 466 0 
L 466 4581 
L 3863 4581 
L 3863 3806 
L 1391 3806 
L 1391 2791 
L 3691 2791 
L 3691 2019 
L 1391 2019 
L 1391 772 
L 3950 772 
L 3950 0 
L 466 0 
z
" transform="scale(0.015625)"/>
      <path id="Arial-BoldMT-64" d="M 3503 0 
L 2688 0 
L 2688 488 
Q 2484 203 2207 64 
Q 1931 -75 1650 -75 
Q 1078 -75 670 386 
Q 263 847 263 1672 
Q 263 2516 659 2955 
Q 1056 3394 1663 3394 
Q 2219 3394 2625 2931 
L 2625 4581 
L 3503 4581 
L 3503 0 
z
M 1159 1731 
Q 1159 1200 1306 963 
Q 1519 619 1900 619 
Q 2203 619 2415 876 
Q 2628 1134 2628 1647 
Q 2628 2219 2422 2470 
Q 2216 2722 1894 2722 
Q 1581 2722 1370 2473 
Q 1159 2225 1159 1731 
z
" transform="scale(0.015625)"/>
     </defs>
     <use xlink:href="#Arial-BoldMT-28"/>
     <use xlink:href="#Arial-BoldMT-33" transform="translate(33.300781 0)"/>
     <use xlink:href="#Arial-BoldMT-20" transform="translate(88.916016 0)"/>
     <use xlink:href="#Arial-BoldMT-53" transform="translate(116.699219 0)"/>
     <use xlink:href="#Arial-BoldMT-74" transform="translate(183.398438 0)"/>
     <use xlink:href="#Arial-BoldMT-6f" transform="translate(216.699219 0)"/>
     <use xlink:href="#Arial-BoldMT-72" transform="translate(277.783203 0)"/>
     <use xlink:href="#Arial-BoldMT-79" transform="translate(316.699219 0)"/>
     <use xlink:href="#Arial-BoldMT-20" transform="translate(372.314453 0)"/>
     <use xlink:href="#Arial-BoldMT-50" transform="translate(400.097656 0)"/>
     <use xlink:href="#Arial-BoldMT-6f" transform="translate(466.796875 0)"/>
     <use xlink:href="#Arial-BoldMT-69" transform="translate(527.880859 0)"/>
     <use xlink:href="#Arial-BoldMT-6e" transform="translate(555.664062 0)"/>
     <use xlink:href="#Arial-BoldMT-74" transform="translate(616.748047 0)"/>
     <use xlink:href="#Arial-BoldMT-73" transform="translate(650.048828 0)"/>
     <use xlink:href="#Arial-BoldMT-20" transform="translate(705.664062 0)"/>
     <use xlink:href="#Arial-BoldMT-45" transform="translate(733.447266 0)"/>
     <use xlink:href="#Arial-BoldMT-61" transform="translate(800.146484 0)"/>
     <use xlink:href="#Arial-BoldMT-72" transform="translate(855.761719 0)"/>
     <use xlink:href="#Arial-BoldMT-6e" transform="translate(894.677734 0)"/>
     <use xlink:href="#Arial-BoldMT-65" transform="translate(955.761719 0)"/>
     <use xlink:href="#Arial-BoldMT-64" transform="translate(1011.376953 0)"/>
     <use xlink:href="#Arial-BoldMT-20" transform="translate(1072.460938 0)"/>
     <use xlink:href="#Arial-BoldMT-50" transform="translate(1100.244141 0)"/>
     <use xlink:href="#Arial-BoldMT-65" transform="translate(1166.943359 0)"/>
     <use xlink:href="#Arial-BoldMT-72" transform="translate(1222.558594 0)"/>
     <use xlink:href="#Arial-BoldMT-20" transform="translate(1261.474609 0)"/>
     <use xlink:href="#Arial-BoldMT-53" transform="translate(1289.257812 0)"/>
     <use xlink:href="#Arial-BoldMT-65" transform="translate(1355.957031 0)"/>
     <use xlink:href="#Arial-BoldMT-73" transform="translate(1411.572266 0)"/>
     <use xlink:href="#Arial-BoldMT-73" transform="translate(1467.1875 0)"/>
     <use xlink:href="#Arial-BoldMT-69" transform="translate(1522.802734 0)"/>
     <use xlink:href="#Arial-BoldMT-6f" transform="translate(1550.585938 0)"/>
     <use xlink:href="#Arial-BoldMT-6e" transform="translate(1611.669922 0)"/>
     <use xlink:href="#Arial-BoldMT-29" transform="translate(1672.753906 0)"/>
    </g>
   </g>
  </g>
 </g>
 <defs>
  <clipPath id="pa0e3e784a9">
   <rect x="48.020938" y="56.192" width="795.31" height="471.91325"/>
  </clipPath>
 </defs>
</svg>
